
      <svg data-logo="logo" xmlns="http://www.w3.org/2000/svg" viewBox="0 0 161 43">
        <g id="logogram" transform="translate(0, 1) rotate(0) "><path d="M17.3991 3.08704L20.0562 0.429993L40.0562 20.43L20.0562 40.43L17.3991 37.7729L34.742 20.43L17.3991 3.08704Z" fill="#D41C1C"/><path d="M13.9305 6.55563L16.5876 3.89858L33.119 20.43L16.5876 36.9614L13.9305 34.3044L27.8049 20.43L13.9305 6.55563Z" fill="#D41C1C"/><path d="M0.0561537 20.43L13.119 7.36717L26.1818 20.43L13.119 33.4928L10.4619 30.8357L20.8677 20.43L13.119 12.6813L2.7132 23.087L0.0561537 20.43Z" fill="#D41C1C"/><path d="M13.119 14.3044L10.4619 16.9614L13.9305 20.43L6.99333 27.3672L9.65037 30.0242L19.2446 20.43L13.119 14.3044Z" fill="#D41C1C"/><path d="M6.1818 26.5556L3.52474 23.8986L9.62258 17.8007L12.2796 20.4578L6.1818 26.5556Z" fill="#D41C1C"/></g>
        <g id="logotype" transform="translate(47, 14.5)"><path fill="#111111" d="M10.66 14.29Q9.53 14.29 8.66 13.71Q7.79 13.13 7.27 12.00Q6.76 10.87 6.76 9.25L6.76 9.25Q6.76 6.82 7.89 5.52Q9.02 4.21 10.94 4.21L10.94 4.21Q11.85 4.21 12.54 4.60L12.54 4.60Q12.82 4.73 13.13 4.97L13.13 4.97L13.13 1.27L11.98 0.99L11.98 0.70L14.46 0.70Q16.16 0.70 16.16 2.41L16.16 2.41L16.16 13.43L17.30 13.71L17.30 14L15.60 14Q14.46 14 13.83 13.30L13.83 13.30Q13.56 13.01 13.41 12.57L13.41 12.57Q13.16 13.05 12.78 13.43L12.78 13.43Q11.93 14.29 10.66 14.29L10.66 14.29ZM11.41 13.62Q12.12 13.62 12.69 12.86L12.69 12.86Q12.90 12.57 13.13 12.10L13.13 12.10L13.13 5.54Q12.92 5.34 12.69 5.17L12.69 5.17Q12.18 4.79 11.70 4.79L11.70 4.79Q10.88 4.79 10.44 5.73Q9.99 6.69 9.99 9.25L9.99 9.25Q9.99 11.70 10.40 12.66Q10.81 13.62 11.41 13.62L11.41 13.62ZM23.67 14.29Q21.24 14.29 19.89 12.95Q18.54 11.61 18.54 9.25L18.54 9.25Q18.54 7.71 19.13 6.57Q19.72 5.43 20.77 4.82Q21.83 4.21 23.20 4.21L23.20 4.21Q24.56 4.21 25.60 4.73Q26.63 5.24 27.19 6.11Q27.76 6.97 27.76 8.02L27.76 8.02Q27.76 8.49 27.66 8.83L27.66 8.83L27.57 9.16Q26.75 9.33 25.80 9.44L25.80 9.44Q23.80 9.73 21.77 9.73L21.77 9.73Q21.77 11.93 22.38 12.87Q22.99 13.81 24.05 13.81L24.05 13.81Q24.79 13.81 25.43 13.46Q26.06 13.11 26.43 12.53Q26.80 11.95 26.80 11.34L26.80 11.34L27.28 11.34Q27.28 12.10 26.82 12.78Q26.37 13.47 25.55 13.88Q24.73 14.29 23.67 14.29L23.67 14.29ZM21.77 9.25Q22.99 9.25 23.75 9.16L23.75 9.16Q24.07 9.14 24.43 9.06L24.43 9.06Q24.45 8.96 24.53 8.64L24.53 8.64Q24.62 8.17 24.62 7.63L24.62 7.63Q24.62 6.06 24.20 5.33Q23.78 4.60 23.20 4.60L23.20 4.60Q21.77 4.60 21.77 9.25L21.77 9.25ZM33.74 14.19L28.99 5.07L28.04 4.79L28.04 4.50L30.42 4.50Q31.40 4.50 31.98 4.91Q32.56 5.32 32.98 6.12L32.98 6.12L35.24 10.50L37.35 5.36L35.93 4.79L35.93 4.50L39.44 4.50L39.44 4.79L37.92 5.36L34.31 14.19L33.74 14.19ZM45.23 14.29Q43.79 14.29 42.58 13.47Q41.36 12.65 40.64 11.08Q39.91 9.52 39.91 7.35L39.91 7.35Q39.91 5.17 40.67 3.60Q41.42 2.03 42.77 1.22Q44.13 0.42 45.92 0.42L45.92 0.42Q47.00 0.42 48.10 1.04L48.10 1.04Q48.52 1.27 48.94 1.65L48.94 1.65Q49.26 1.16 49.61 0.87L49.61 0.87Q49.95 0.62 49.98 0.61L49.98 0.61L50.46 0.61L50.46 4.21L49.70 4.21Q49.45 3.30 48.96 2.56L48.96 2.56Q48.50 1.84 47.83 1.37Q47.15 0.89 46.28 0.89L46.28 0.89Q44.97 0.89 44.10 2.41Q43.24 3.93 43.24 7.35L43.24 7.35Q43.24 10.77 44.01 12.20Q44.78 13.62 46.00 13.62L46.00 13.62Q46.70 13.62 47.27 12.86L47.27 12.86Q47.48 12.57 47.70 12.10L47.70 12.10L47.70 7.73L46.57 7.45L46.57 7.16L51.98 7.16L51.98 7.45L50.84 7.73L50.84 14.10L50.55 14.10Q49.17 14.10 48.45 13.34L48.45 13.34Q48.12 12.99 47.99 12.57L47.99 12.57Q47.72 13.05 47.36 13.43L47.36 13.43Q46.51 14.29 45.23 14.29L45.23 14.29ZM53.12 14L53.12 13.71L54.26 13.43L54.26 5.07L53.12 4.79L53.12 4.50L54.83 4.50Q55.95 4.50 56.60 5.22L56.60 5.22Q56.84 5.51 57.02 5.93L57.02 5.93Q57.30 5.51 57.72 5.17L57.72 5.17Q58.67 4.40 59.85 4.40L59.85 4.40Q60.85 4.40 61.36 4.87Q61.86 5.34 61.86 6.21L61.86 6.21Q61.86 6.86 61.47 7.25Q61.08 7.63 60.44 7.63L60.44 7.63Q60.17 7.63 59.90 7.60L59.90 7.60L59.67 7.54L59.67 4.88Q58.71 4.88 57.91 5.64L57.91 5.64Q57.53 6.02 57.30 6.40L57.30 6.40L57.30 13.43L58.44 13.71L58.44 14L53.12 14ZM62.71 14L62.71 13.71L63.85 13.43L63.85 5.07L62.71 4.79L62.71 4.50L65.19 4.50Q66.89 4.50 66.89 6.21L66.89 6.21L66.89 13.43L68.03 13.71L68.03 14L62.71 14ZM65.19 3.36Q64.61 3.36 64.23 2.98Q63.85 2.60 63.85 2.03L63.85 2.03Q63.85 1.46 64.23 1.08Q64.61 0.70 65.19 0.70L65.19 0.70Q65.75 0.70 66.13 1.08Q66.52 1.46 66.52 2.03L66.52 2.03Q66.52 2.60 66.13 2.98Q65.75 3.36 65.19 3.36L65.19 3.36ZM69.08 14L69.08 13.71L70.22 13.43L70.22 5.36L68.89 5.36L68.89 4.88L70.22 4.88L70.22 3.93Q70.22 2.92 70.70 2.13Q71.19 1.33 72.09 0.87Q72.99 0.42 74.21 0.42L74.21 0.42Q75.20 0.42 75.91 0.71Q76.62 1.00 76.98 1.49Q77.34 1.97 77.34 2.51L77.34 2.51Q77.34 3.15 76.96 3.54Q76.57 3.93 75.92 3.93L75.92 3.93Q75.65 3.93 75.39 3.89L75.39 3.89L75.16 3.84L75.16 0.89L74.99 0.85Q74.91 0.83 74.82 0.81Q74.72 0.79 74.59 0.79L74.59 0.79Q73.94 0.79 73.60 1.47Q73.26 2.14 73.26 3.93L73.26 3.93L73.26 4.88L76.30 4.88L76.30 5.36L73.26 5.36L73.26 13.43L74.40 13.71L74.40 14L69.08 14ZM77.16 14L77.16 13.71L78.30 13.43L78.30 5.36L76.96 5.36L76.96 4.88L78.30 4.88L78.30 3.93Q78.30 2.92 78.78 2.13Q79.26 1.33 80.17 0.87Q81.07 0.42 82.28 0.42L82.28 0.42Q83.27 0.42 83.99 0.71Q84.70 1.00 85.06 1.49Q85.42 1.97 85.42 2.51L85.42 2.51Q85.42 3.15 85.03 3.54Q84.64 3.93 83.99 3.93L83.99 3.93Q83.73 3.93 83.46 3.89L83.46 3.89L83.23 3.84L83.23 0.89L83.06 0.85Q82.99 0.83 82.89 0.81Q82.80 0.79 82.66 0.79L82.66 0.79Q82.02 0.79 81.68 1.47Q81.33 2.14 81.33 3.93L81.33 3.93L81.33 4.88L84.38 4.88L84.38 5.36L81.33 5.36L81.33 13.43L82.47 13.71L82.47 14L77.16 14ZM85.52 14L85.52 13.71L86.66 13.43L86.66 5.07L85.52 4.79L85.52 4.50L87.98 4.50Q89.69 4.50 89.69 6.21L89.69 6.21L89.69 13.43L90.83 13.71L90.83 14L85.52 14ZM87.98 3.36Q87.41 3.36 87.03 2.98Q86.66 2.60 86.66 2.03L86.66 2.03Q86.66 1.46 87.03 1.08Q87.41 0.70 87.98 0.70L87.98 0.70Q88.55 0.70 88.94 1.08Q89.31 1.46 89.31 2.03L89.31 2.03Q89.31 2.60 88.94 2.98Q88.55 3.36 87.98 3.36L87.98 3.36ZM91.97 14L91.97 13.71L93.11 13.43L93.11 5.07L91.97 4.79L91.97 4.50L93.68 4.50Q94.81 4.50 95.45 5.22L95.45 5.22Q95.70 5.51 95.87 5.93L95.87 5.93Q96.14 5.43 96.50 5.07L96.50 5.07Q97.35 4.21 98.62 4.21L98.62 4.21Q99.69 4.21 100.53 4.66Q101.38 5.11 101.85 5.83Q102.33 6.55 102.33 7.35L102.33 7.35L102.33 13.43L103.47 13.71L103.47 14L101.00 14Q99.29 14 99.29 12.29L99.29 12.29L99.29 7.35Q99.29 6.15 98.86 5.52Q98.43 4.88 97.86 4.88L97.86 4.88Q97.14 4.88 96.57 5.64L96.57 5.64Q96.33 5.96 96.15 6.40L96.15 6.40L96.15 13.43L97.29 13.71L97.29 14L91.97 14ZM109.07 14.29Q107.90 14.29 106.97 13.77L106.97 13.77Q106.51 13.53 106.22 13.24L106.22 13.24Q105.92 13.66 105.56 13.89L105.56 13.89Q105.39 14 105.18 14.10L105.18 14.10L104.70 14.10L104.70 10.87L105.46 10.87Q105.71 11.66 106.19 12.35L106.19 12.35Q107.19 13.81 108.69 13.81L108.69 13.81Q109.49 13.81 109.90 13.42Q110.31 13.03 110.31 12.29L110.31 12.29Q110.31 11.66 109.75 11.24Q109.19 10.81 107.99 10.18L107.99 10.18Q106.97 9.67 106.33 9.26Q105.69 8.85 105.25 8.23Q104.80 7.62 104.80 6.78L104.80 6.78Q104.80 5.64 105.78 4.93Q106.76 4.21 108.79 4.21L108.79 4.21Q109.80 4.21 110.65 4.75L110.65 4.75Q111.07 4.99 111.37 5.26L111.37 5.26Q111.62 4.92 112.04 4.61L112.04 4.61Q112.36 4.42 112.42 4.40L112.42 4.40L112.89 4.40L112.89 7.63L112.13 7.63Q111.85 6.82 111.43 6.17L111.43 6.17Q110.48 4.69 109.17 4.69L109.17 4.69Q108.66 4.69 108.30 5.07Q107.93 5.45 107.93 6.02L107.93 6.02Q107.93 6.74 108.54 7.23Q109.15 7.71 110.39 8.34L110.39 8.34Q111.39 8.85 111.99 9.24Q112.59 9.63 113.02 10.20Q113.44 10.77 113.44 11.53L113.44 11.53Q113.44 14.29 109.07 14.29L109.07 14.29Z"/></g>
        
      </svg>
    